Coordinates
version=1
nRows=17
nColumns=24
inDegrees=yes

Units are S.I. units (second, meters, Newtons, ...)
Angles are in degrees.

endheader
time	pelvis_tilt	pelvis_list	pelvis_rotation	pelvis_tx	pelvis_ty	pelvis_tz	hip_flexion_r	hip_adduction_r	hip_rotation_r	knee_angle_r	ankle_angle_r	subtalar_angle_r	mtp_angle_r	hip_flexion_l	hip_adduction_l	hip_rotation_l	knee_angle_l	ankle_angle_l	subtalar_angle_l	mtp_angle_l	lumbar_extension	lumbar_bending	lumbar_rotation
      1.01500000	      4.66229059	     -0.32739538	     -1.15682210	     -0.20613373	      0.91262644	      0.01107412	     23.38863818	      1.47535347	     -4.59054373	    -32.36200397	     19.64151163	     -4.67148332	     35.33184949	    -21.67268119	      2.44124522	     -5.15209581	      2.18820439	     15.86297569	      5.74371977	     26.67938137	    -17.41496735	     -3.22315224	     -7.47929267
      1.02000000	      4.63772683	     -0.30364805	     -0.88287829	     -0.19799167	      0.91154885	      0.01106076	     23.36772085	      1.38504664	     -4.84614265	    -30.06916911	     19.49407119	     -4.10466014	     35.76041415	    -22.23991260	      2.34951882	     -5.31359291	      2.27474260	     15.93220746	      6.41942796	     27.28537346	    -17.42211699	     -3.19684556	     -7.70218723
      1.02500000	      4.59402397	     -0.20154938	     -0.54133238	     -0.18985912	      0.91042098	      0.01100073	     23.34712336	      1.18275945	     -5.18321652	    -27.81003230	     19.33558129	     -3.44675693	     36.03001239	    -22.73564188	      2.29990446	     -5.35565042	      2.27604504	     15.97119257	      7.07759129	     27.62333337	    -17.41601122	     -3.24594215	     -8.05198187
      1.03000000	      4.52617649	     -0.14162283	     -0.18353433	     -0.18162014	      0.90922656	      0.01096121	     23.29621653	      1.03047505	     -5.53510274	    -25.52949597	     19.14013136	     -2.81649456	     36.25354745	    -23.20112006	      2.18859230	     -5.35993414	      2.25440481	     16.10505939	      7.73660625	     27.91585774	    -17.37143655	     -3.24495912	     -8.37568560
      1.03500000	      4.58938664	     -0.09632840	      0.14630110	     -0.17327579	      0.90818860	      0.01097225	     23.05784924	      0.90119933	     -5.92234109	    -23.25322561	     18.86844175	     -2.13389323	     36.60707037	    -23.79909923	      2.07303302	     -5.49901785	      2.20211889	     16.13722141	      8.42269354	     28.31074621	    -17.46585063	     -3.23491873	     -8.66576633
      1.04000000	      4.64685622	     -0.06325591	      0.48682678	     -0.16483216	      0.90712697	      0.01100794	     22.79376684	      0.79006382	     -6.33890616	    -21.02189385	     18.50626886	     -1.48964976	     37.07888059	    -24.38292687	      1.92860689	     -5.60467482	      2.12780814	     16.14554041	      9.08709529	     28.81724872	    -17.54309970	     -3.21095162	     -8.92294094
      1.04500000	      4.67947094	     -0.07104423	      0.79840369	     -0.15626977	      0.90598704	      0.01115614	     22.52552404	      0.75638029	     -6.69563087	    -18.83180757	     17.96410234	     -1.10876942	     38.48458947	    -24.93676830	      1.74052136	     -5.72924848	      2.03856919	     16.11928447	      9.67119035	     30.20580720	    -17.57691914	     -3.15408683	     -9.11914649
      1.05000000	      4.75085896	     -0.04175578	      1.19469368	     -0.14763218	      0.90490879	      0.01119524	     22.19925882	      0.64612487	     -7.19353390	    -16.77352840	     17.60430987	     -0.45470389	     38.66872260	    -25.49629653	      1.54511845	     -5.71412367	      1.87696164	     16.12749438	     10.22326644	     30.46248201	    -17.65343934	     -3.11360476	     -9.44656476
      1.05500000	      4.79115551	     -0.06083902	      1.58799847	     -0.13886335	      0.90376260	      0.01133157	     21.88009142	      0.61612370	     -7.63330822	    -14.80614605	     17.18304078	     -0.05140382	     38.82743741	    -26.00758532	      1.28290772	     -5.70088152	      1.67414962	     16.21830179	     10.80968462	     30.77460155	    -17.67958874	     -3.02689219	     -9.74865193
      1.06000000	      5.01226836	     -0.11703551	      1.93460807	     -0.12995876	      0.90285169	      0.01153337	     21.34959264	      0.64956515	     -8.09579129	    -12.96122900	     16.72937523	      0.40857218	     39.16483556	    -26.71128001	      0.99611969	     -5.84050945	      1.45196131	     16.19330436	     11.42544355	     31.33130359	    -17.89100212	     -2.90406523	     -9.96376787
      1.06500000	      5.18564541	     -0.17160710	      2.28807527	     -0.12097918	      0.90189235	      0.01175683	     20.88158522	      0.69235465	     -8.53826925	    -11.30214402	     16.23644748	      0.68142502	     39.53925245	    -27.32004671	      0.69515070	     -5.93497402	      1.14606064	     16.14540133	     11.96059284	     32.02941297	    -18.04016621	     -2.77955186	    -10.17998107
      1.07000000	      5.27534147	     -0.25804590	      2.60856982	     -0.11186034	      0.90080305	      0.01206203	     20.52458002	      0.78929184	     -8.91076160	     -9.84645719	     15.68542744	      0.74611893	     40.72783957	    -27.83581494	      0.36704798	     -6.00019346	      0.84043250	     15.92540952	     12.33484670	     34.16386240	    -18.07464102	     -2.63348914	    -10.31314613
      1.07500000	      5.47876403	     -0.36519091	      2.95778280	     -0.10270106	      0.89989518	      0.01233707	     20.04864184	      0.91184211	     -9.29509776	     -8.58999964	     15.25893858	      0.78520815	     40.75887656	    -28.42468844	     -0.00928888	     -6.02792203	      0.42702651	     15.90596619	     12.74344408	     34.53561171	    -18.23287411	     -2.44636025	    -10.49257559
      1.08000000	      5.68802548	     -0.50509031	      3.28556320	     -0.09342896	      0.89901435	      0.01267216	     19.59001532	      1.08531697	     -9.64822535	     -7.55951131	     14.87410563	      0.71529232	     40.83671654	    -28.98282174	     -0.42159232	     -6.11238528	     -0.05991293	     15.83445613	     13.19454789	     35.19756573	    -18.38151137	     -2.22904148	    -10.63637159
      1.08500000	      5.81067405	     -0.67139847	      3.59182293	     -0.08404537	      0.89804136	      0.01302469	     19.26765377	      1.28783269	     -9.97257457	     -6.79016253	     14.52079439	      0.56563868	     41.22207864	    -29.41233744	     -0.85438408	     -6.18197715	     -0.60202493	     15.60595262	     13.50201835	     37.38818477	    -18.41425048	     -1.98766461	    -10.72522089
      1.09000000	      6.01777738	     -0.84379583	      3.90070993	     -0.07467553	      0.89723395	      0.01338807	     18.86412881	      1.51347977	    -10.19659277	     -6.21102355	     14.19152948	      0.16393292	     41.17283926	    -29.88010466	     -1.30757048	     -6.17522247	     -1.24726472	     15.49145658	     13.73087100	     37.83288292	    -18.54476312	     -1.72991612	    -10.84930960
      1.09500000	      6.27383270	     -1.10462293	      4.15523919	     -0.06516421	      0.89651434	      0.01379026	     18.43946378	      1.84992612	    -10.43656059	     -5.85554120	     13.83830292	     -0.21303549	     41.18873050	    -30.36808808	     -1.83057539	     -6.33200296	     -1.96053174	     15.30912696	     14.07426895	     39.11563618	    -18.70165188	     -1.37907509	    -10.79525308
